<?xml version="1.0" encoding="utf-8"?>
<!-- Generator: Adobe Illustrator 25.1.0, SVG Export Plug-In . SVG Version: 6.00 Build 0)  -->
<svg version="1.1" id="Layer_1" xmlns="http://www.w3.org/2000/svg" xmlns:xlink="http://www.w3.org/1999/xlink" x="0px" y="0px"
	 viewBox="0 0 500 500" style="enable-background:new 0 0 500 500;" xml:space="preserve">
<style type="text/css">
	.st0{fill:#00FF66;}
	.st1{fill:#00FF29;}
	.st2{fill:#FF0042;}
	.st3{fill:none;}
	.st4{fill:#FF3D00;}
	.st5{fill:#FF7A00;}
	.st6{fill:#FFB800;}
	.st7{fill:#FFF500;}
	.st8{fill:#FF0000;}
	.st9{fill:#CCFF00;}
	.st10{fill:#8FFF00;}
	.st11{fill:#52FF00;}
	.st12{fill:#14FF00;}
	.st13{fill:#00FFA3;}
	.st14{fill:#FF007F;}
	.st15{fill:#FF00BC;}
	.st16{fill:#FF00F9;}
	.st17{fill:#C800FF;}
	.st18{fill:#8B00FF;}
	.st19{fill:#4E00FF;}
	.st20{fill:#1100FF;}
	.st21{fill:#002CFF;}
	.st22{fill:#0067FF;}
	.st23{fill:#00A4FF;}
	.st24{fill:#00E1FF;}
	.st25{fill:#FFFFFF;}
	.st26{fill:#00FFE0;}
</style>
<path class="st0" d="M234.25,197.59c0,0,1.04,10.73-0.66,13.55c0,0,9.98,0.03,12.99,0.77c3.01,0.74,6.78,2.15,6.78,2.15
	s0.85-7.53,3.76-6.87c2.92,0.66-1.32,7.44,0,8.56c1.32,1.13,4.33,0.21,4.89,1.79c0.57,1.58,5.46,13.55,7.91,13.93
	s4.71,0.09,4.05-3.86c-0.66-3.95-8.97-17.32-7.59-17.6c1.38-0.28,4.86,0.85,4.96-3.11c0.09-3.95-2.64-5.46-4.52-5.27
	c-1.88,0.19-4.61,1.13-4.89-0.09c-0.28-1.22,0.19-6.68-1.51-6.21c-1.69,0.47-3.67,3.01-5.36,3.39
	C253.36,199.1,234.25,197.59,234.25,197.59z"/>
<path class="st1" d="M233.13,211.99c-0.69-0.42-0.09,4.71-0.66,7.34c-0.56,2.64-3.11,5.55-2.73,6.31s8,0.85,10.26,1.51
	c2.26,0.66,8.28,1.88,9.41,1.51c1.13-0.38,2.82-5.27,4.8-4.99c1.98,0.28-2.07,7.25-0.94,8.28c1.13,1.04,5.18,1.69,8,5.93
	c2.82,4.24,4.61,8.66,7.44,6.59c2.82-2.07-3.2-9.51-4.14-11.76c-0.94-2.26-1.04-4.42,0.19-4.61c1.22-0.19,4.71-1.98,3.29-5.93
	c-1.41-3.95-4.61-2.64-6.78-3.2c-2.16-0.56-1.32-6.31-2.82-6.96c-1.51-0.66-3.01,3.11-5.08,3.58
	C251.29,216.04,237.27,214.53,233.13,211.99z"/>
<path class="st2" d="M192.94,38.16c0,0-1.13-3.01-2.64-3.76c-1.51-0.75-1.32-3.95,1.32-6.02s4.52-2.26,6.4,0
	c1.88,2.26,6.21-3.58,9.04,0c2.82,3.58-0.94,4.08-0.94,4.08s7.34-0.32,9.6-2.58s4.14,1.39,3.39,2.58c-0.75,1.19-3.01,3.26-5.08,3.64
	c-2.07,0.38-9.71,0-9.71,0l-1.02,4.14c0,0-3.2,0.38-6.21,0C194.07,39.85,192.94,38.16,192.94,38.16z"/>
<path class="st3" d="M54.09,69.34"/>
<path class="st4" d="M208.18,371.87c0,0,2.62,4.14,3.13,8.38c0.5,4.24,0.91,9.29,0.91,9.29s13.63-2.02,15.65-4.34
	c2.02-2.32,5.15-6.16,5.15-6.16l-4.54-1.11c0,0,20.1,4.91,22.35-0.12c2.25-5.03-8.71-5.94-8.71-5.94s5.03-5.02-0.45-7.17
	c-5.48-2.16-6.47-0.81-6.47-0.81l-1.53,4.49l-4.02-2.07c0,0-3.44,2.6-9.46,3.95C214.18,371.61,208.18,371.87,208.18,371.87z"/>
<path class="st5" d="M202.72,350.13c0,0,1.62,5.03,2.16,9.25c0.54,4.22,0.54,7.18,0.54,7.18s16.61,1.53,24.97-3.32l-2.07-4.78
	c0,0,3.23,0.47,5.48,2.71c2.25,2.25,3.14,6.02,7.54,5.62c4.4-0.41,11.14,1.84,13.47,0.58c2.34-1.26,3.05-3.5,2.78-5.39
	c-0.27-1.89-3.5-5.21-7.99-5.21s-12.12-0.09-12.75-1.44c0,0,8.53-5.66,1.8-11.23c-6.74-5.57-8.53,1.8-11.05,3.41
	C225.09,349.14,202.72,350.13,202.72,350.13z"/>
<path class="st6" d="M200.75,327.76c0,0,1.98,5.12,1.98,9.16c0,4.04-0.99,8.62-0.99,8.62s16.7,2.07,23.71-2.87l-0.9-4.31
	c0,0,3.64-0.54,5.32,1.26c1.68,1.8,9.67,10.51,19.1,10.51c9.43,0,4.29-11.59,2.37-12.48c-1.92-0.9-15.84-2.16-15.84-2.16l0.18-1.89
	c0,0,8.71-3.68,1.71-8.53s-8.89,3.5-8.89,3.5l-3.5-1.89c0,0-5.57,2.16-11.23,2.16C208.11,328.84,200.75,327.76,200.75,327.76z"/>
<path class="st7" d="M203.17,303.6c0,0,1.44,3.5,0.9,8.44c-0.54,4.94-1.89,9.7-1.89,9.7l23.98,0.81c0,0-0.79-5.3,1.45-5.3
	s3.13,1.23,4.3,3.77c1.17,2.54,10.78,11.85,14.73,12.03s7.36-2.07,6.74-7.45c-0.63-5.39-5.66-7.18-9.25-8.35
	c-3.59-1.17-7.36-3.59-7.36-3.59s9.25-4.58,7.01-7.72s-8.08-6.29-10.24-3.5c-2.16,2.78-1.89,3.95-4.13,4.13
	C227.15,306.75,203.17,303.6,203.17,303.6z"/>
<path class="st8" d="M257.97,379.72c0.54-1.86-0.5-6.26-2.93-6.87c-2.42-0.61-10.3-1.21-10.3-1.21s-4.85,6.16-6.36,6.76
	c-1.51,0.61-6.46,2.52-8.28,5.25c-1.82,2.73-7.27,15.95-6.97,22.41s9.69,10.5,13.12,10.6c3.43,0.1,12.12,6.97,13.83,8.78
	s2.93,6.87,3.03,10.5c0.1,3.63-3.74,9.39-2.32,9.89c1.41,0.5,1.51,0,1.51,0s-2.73,2.52-3.53,5.05c-0.81,2.52-0.4,5.55-2.32,7.47
	c-1.92,1.92-3.13,4.34-1.21,5.75c0,0-7.98,5.65-5.65,8.28c2.32,2.62,9.79-5.65,9.79-6.26s-0.1-2.02-0.1-2.02s1.92,0,3.84-3.53
	s0.1-4.75,1.21-7.47c1.11-2.73,5.75-7.37,5.35-8.18c-0.4-0.81-1.01-1.72-1.01-1.72l3.94-0.3l0.71-14.34c0,0,3.13-2.83,3.13-7.77
	c0-4.95-3.94-5.86-4.04-7.57c-0.1-1.72,0-8.88,0-8.88s-7.57-8.28-7.77-9.69c-0.2-1.41,2.83-2.42,1.21-4.85
	c-1.62-2.42-8.78-1.92-8.78-1.92s0.71-7.27,2.52-7.27C251.41,380.63,257.47,381.45,257.97,379.72z"/>
<path class="st9" d="M208.28,281.26c0,0,0.75,6.02,0,8.19c-0.75,2.16-4.05,6.78-4.05,6.78l24.85,6.87c0,0,1.88-1.79,1.69-5.08
	c-0.19-3.29,3.39,0.38,3.39,1.22s7.62,11.86,11.58,13.74c3.95,1.88,5.55,1.51,7.25-2.35c1.69-3.86-1.22-7.23-4.14-9.26
	c-2.92-2.03-5.36-4.76-5.36-4.76s8.3-7.2,0.66-11.39c-7.51-4.12-9.49,1.26-9.98,1.69l-2.07-1.6
	C229.03,286.68,212.29,285.59,208.28,281.26z"/>
<path class="st10" d="M216,261.87c-1.31-0.58-0.56,6.4-1.41,8.47s-3.86,4.33-3.58,5.74c0.28,1.41,18.53,7.6,22.49,7.72
	c0,0,2.54-1.79,2.64-4.05c0,0,2.82-0.47,3.11,0.28c0.28,0.75,3.76,15.53,12.71,16.09c8.94,0.56,3.48-9.69,0-11.86
	s-5.27-5.26-5.27-5.26s5.55-3.68,5.65-5.38s-0.75-3.2-0.75-3.2l-6.87-0.56l-0.28-6.12l-4.61,3.48
	C239.81,267.24,222.58,264.79,216,261.87z"/>
<path class="st11" d="M223.34,244.46c-0.94,0.56-0.47,3.76-0.94,6.78c-0.47,3.01-3.48,6.02-3.48,7.15c0,1.13,7.81,1.22,10.54,2.26
	c2.73,1.04,10.07,4.52,10.07,4.52s2.35-4.24,4.33-4.42c1.98-0.19,0.66,11.01,2.64,11.01c1.98,0,6.96,5.08,10.73,5.18
	c3.76,0.09,3.2-8.09-0.85-11.01c-4.05-2.92,0.75-2.61,1.22-4.08c0.47-1.47,1.09-5.99-4.11-6.74c-5.21-0.75-0.78-8.28-2.19-9.41
	c-1.41-1.13-4.24,2.82-7.81,3.29C239.9,249.45,223.34,244.46,223.34,244.46z"/>
<path class="st12" d="M228.33,227.61c0,0,0.85,4.33,0,7.81c-0.85,3.48-3.29,5.28-3.29,6.17s6.49,1.27,10.07,2.21
	s8.94,4.42,10.07,3.01c1.13-1.41,1.41-4.52,3.39-4.52s0.28,5.89,1.6,7.6s7.53,5.76,9.22,6.8c1.69,1.04,5.36,4.52,6.68,0
	c1.32-4.52-1.79-5.27-4.14-7.72s-2.18-4.05-2.18-4.05s5.85,1.41,5.56-4.33s-4.05-4.14-6.49-4.52c-2.45-0.38-4.05-1.51-4.42-3.11
	c-0.38-1.6,1.32-4.61-0.75-4.61s-3.11,3.11-4.52,3.2C247.71,231.66,233.41,230.53,228.33,227.61z"/>
<path class="st13" d="M235.52,184.18c0,0,1.49,4.14,1.22,6.24c-0.27,2.1-2.04,4.82-1.76,5.5c0.27,0.68,9.16,0.27,11.74,0.47
	c2.58,0.2,7.94,0.95,7.94,0.95s1.49-6.17,2.51-6.17c1.02,0,2.44,0.95,2.51,1.76c0.07,0.81,0.41,5.77,0.61,6.04
	c0.2,0.27,5.43,3.12,6.04,5.16c0.61,2.04,3.32,11.81,4.89,12.08c1.56,0.27,4.68-0.61,5.09-3.73c0.41-3.12-4.68-9.86-5.36-12.26
	c-0.68-2.4-2.51-4.16-2.51-5.99c0-1.83,4.95-4.07,2.92-6.58c-2.04-2.51-4.41,0.07-7.46-2.04c-3.05-2.1-1.36-7.46-2.99-7.19
	c-1.63,0.27-1.42,4.34-6.72,5.02S237.69,185.34,235.52,184.18z"/>
<path class="st14" d="M192.59,41.46c0,0-2.45,10.09,0.55,12c0,0,5.11-5.73,8.87-5.05c3.75,0.68,7.64,2.39,7.64,2.39
	s4.09-2.8,6.61-2.8s7.84,0,7.84-2.59s-0.82-4.52-2.05-5.02c-1.23-0.5-4.16-1.27-6.61,0c-2.45,1.27-4.09,2.02-4.09,2.02
	s-4.92,0.27-7.03-1.16C204.31,41.26,196.82,42.48,192.59,41.46z"/>
<path class="st15" d="M195.11,65.53l-0.61-9.89c0,0,1.09-5.25,8.12-5.05c7.02,0.2,7.64,1.98,7.64,1.98l4.16-1.64
	c0,0,1.23,1.09,3.14,1.09c1.91,0,3.55,0.48,3.55,1.43s-0.2,2.65-4.43,4.6s-3.55-0.17-4.02,1.26c-0.48,1.43,0.07,2.66-0.82,2.66
	s-2.39-3-5.05-3S195.11,65.53,195.11,65.53z"/>
<path class="st16" d="M196.41,68.94l4.3,7.64c0,0,3.49-7.64,7.16-7.91c3.68-0.27,7.22,0.55,7.22,0.55s1.43-2.52,3.89-2.39
	c2.45,0.14,5.05,1.84,5.46,0.95c0.41-0.89,1.3-2.11-4.09-4.98c-5.39-2.86-5.52-1.77-5.52-1.77s-5.66-1.98-9.21-0.68
	C202.07,61.65,196.41,68.94,196.41,68.94z"/>
<path class="st17" d="M202.34,78.63l3.96,7.43c0,0,4.91-8.05,6.68-7.98c1.77,0.07,6.61,0,6.61,0s3.5-3.27,5.16-3.27
	s4.46-2.52,4.18-2.93c-0.27-0.41-2.52-1.64-5.52-1.64s-5.8-0.48-8.12-0.48s-6.61-1.16-9.68,3.14
	C202.54,77.19,202.34,78.63,202.34,78.63z"/>
<path class="st18" d="M206.77,87.42c-0.07,0.75,1.91,2.8,2.66,3.89c0.75,1.09-0.27,4.23,0.61,4.16s6.07-6,7.43-6.07
	s0.82-3.34,1.91-3.34c1.09,0,3.15,2.71,4.47,2.47s6.95-5.15,8.5-5.15s6.71,0,6.71-1.68c0-1.68-5.03-2.99-7.19-2.99
	s-4.44-1.68-7.13-1.56c-2.69,0.12-2.33,1.8-4.61,1.92c-2.28,0.12-3.83-0.96-6.59,0.6S206.77,87.42,206.77,87.42z"/>
<path class="st19" d="M211.28,97.28c0,0,1.68,2.04,2.16,3.59c0.48,1.56,0.72,4.07,0.72,4.07s6.34-1.08,10.6-6.47V95
	c0,0,9.05,0.94,12.4,0.47c3.35-0.47,5.15-1.91,8.86-2.27c3.71-0.36,5.15-1.32,5.03-2.75s-1.32-1.92-5.99-1.68s-8.98-1.08-12.94-1.2
	c-3.95-0.12-1.32,0.96-6.23,0.72c-4.91-0.24-5.15,2.4-5.39,1.8c-0.24-0.6-0.96-2.52-0.96-2.52S216.07,96.56,211.28,97.28z"/>
<path class="st20" d="M215.65,107.46l4.5,9.94c0,0,9.23-2.87,11.02-4.97s-0.72-4.97-0.72-4.97l1.37-0.96c0,0,8.95,2.52,19.24,2.4
	c10.29-0.12,8.02-3.95,8.02-3.95s1.57-3.83-8.02-3.35c-9.59,0.48-13.59-2.04-13.59-2.04s-0.07-6.35-5.34-5.87
	c-5.27,0.48-5.15,2.64-5.15,6.83l-2.22,0.24C224.75,100.75,222.17,107.46,215.65,107.46z"/>
<path class="st21" d="M220.86,118.72c0,0,2.16,2.75,2.75,4.91c0.6,2.16,1.14,5.63,1.14,5.63s9.29-0.12,14.8-5.75
	c0,0-2.75-4.43-1.2-4.79c1.56-0.36,0.12,2.99,2.28,3.23c2.16,0.24,7.31,2.52,14.85,2.64c7.55,0.12,9.34,0.6,8.26-4.55
	c-1.08-5.15-5.51-2.28-9.46-3.83s-8.98-3.59-8.98-3.59s4.42-5.08-1.68-7.08c-6.15-2.02-7.55,4.12-7.55,4.12l-1.91-0.16
	C233.73,111.84,230.38,117.48,220.86,118.72z"/>
<path class="st22" d="M226.49,130.93c0,0,1.32,2.64,2.04,5.51c0.72,2.87,0,5.27,0,5.27s12.22-0.84,15.93-5.39c0,0-1.08-4.19,0-4.19
	c1.08,0,0.6,5.51,2.4,5.63s5.27-1.8,9.1-1.44s9.34,4.31,11.14,4.07c1.8-0.24,2.99-0.24,2.64-4.07s-0.72-3.35-3.11-3.35
	c-2.4,0-4.55-1.32-8.62-3.23c-4.07-1.92-5.99-2.28-5.99-2.28s5.51-4.31,1.56-6.47c-3.95-2.16-6.23,2.4-7.67,2.99
	c-1.44,0.6-5.12-2.05-6.02-1.58c-0.9,0.47-0.6,3.89-0.99,4.46C238.51,127.42,228.94,131.55,226.49,130.93z"/>
<path class="st23" d="M229.71,142.67c0,0,1.76,3.74,1.91,6.42c0.14,2.68,0,5.65,0,5.65s12.07,0,17.58-4.73l-0.56-3.95l2.89,0.78
	c0,0-1.76,6.42,0,6.56c1.76,0.14,5.72-1.98,7.06-1.76s12.92,11.29,14.61,6.28c1.69-5.01-8.17-10.09-9.87-12.35s-3.12-1.69-3.12-1.69
	s4.16-6.49-0.99-7.76c-5.15-1.27-2.4,1.84-5.86,1.98c-3.46,0.14-5.72-2.89-6.21-2.61c-0.49,0.28-1.34,3.04-2.54,3.39
	C243.41,139.21,235.15,143.52,229.71,142.67z"/>
<path class="st24" d="M232.68,156.58c0,0,1.48,3.74,1.76,6.14s0,5.51,0,5.51s6.71-0.07,10.73-1.41c4.02-1.34,6.85-2.96,6.85-2.96
	s-0.99-4.59,2.26-4.31c3.25,0.28,0.1,5.65,1.36,6.49c1.25,0.85,6.12-1.2,7.47,0.56c1.34,1.76,13.55,17.58,12.85,10.24
	c-0.71-7.34-1.62-5.36-5.86-11.79c-4.24-6.42-4.73-5.72-5.22-6.99s0.64-4.66-0.35-5.29c-0.99-0.64-12.96-2.4-12.96-2.4
	s-6.87,4.04-10.82,4.93C236.77,156.18,232.68,156.58,232.68,156.58z"/>
<path class="st25" d="M234.95,169.75"/>
<path class="st26" d="M234.95,169.75c0,0,1.65,2.92,1.42,6.38c-0.24,3.55-0.7,5.65-0.7,5.65s5.14,0.89,10.31,0.48
	s9.04-0.97,9.04-0.97s0.4-6.38,2.26-6.14c1.86,0.24,1.78,3.61,1.78,3.61l-2.26,4.78c2.83-0.08,6.14-1.21,6.14-1.21
	s9.47,16.39,11.15,16.39s4.15-5.89,2.23-8.4s-8.86-13.81-8.46-14.94c0.4-1.13,4.44-6.3,1.13-7.99s-7.41,0.92-11.06-3.47
	c0,0-5.01,4.04-11.95,5.01S234.95,169.75,234.95,169.75z"/>
</svg>
