<?xml version="1.0" encoding="utf-8"?>
<!-- Generator: Adobe Illustrator 25.1.0, SVG Export Plug-In . SVG Version: 6.00 Build 0)  -->
<svg version="1.1" id="Myotome" xmlns="http://www.w3.org/2000/svg" xmlns:xlink="http://www.w3.org/1999/xlink" x="0px" y="0px"
	 viewBox="0 0 100 400" style="enable-background:new 0 0 100 400;" xml:space="preserve">
<style type="text/css">
	.st0{fill:#FF3D00;}
	.st1{fill:#FF7A00;}
	.st2{fill:#FFB800;}
	.st3{fill:#FFF500;}
	.st4{fill:#CCFF00;}
	.st5{fill:#8FFF00;}
	.st6{fill:#52FF00;}
	.st7{fill:#14FF00;}
	.st8{fill:#00FF29;}
	.st9{fill:#00FF66;}
	.st10{fill:#00FFA3;}
	.st11{fill:#4E00FF;}
	.st12{fill:#1100FF;}
	.st13{fill:#002CFF;}
	.st14{fill:#0067FF;}
	.st15{fill:#00A4FF;}
	.st16{fill:#00E1FF;}
	.st17{fill:#00FFE0;}
	.st18{fill:#8B00FF;}
	.st19{fill:#C800FF;}
	.st20{fill:#FF007F;}
	.st21{fill:#FF00BC;}
	.st22{fill:#FF00F9;}
	.st23{fill:#FF0042;}
	.st24{fill:#FF0000;}
</style>
<path id="V23-296.44"d="M-16.49,289.05c0,0,1.69,4.03,1.49,7.84c-0.19,3.8-0.6,8.3-0.6,8.3s12.29,0.27,14.41-1.46
	s5.45-4.64,5.45-4.64l-3.83-1.66c0,0,16.94,7.34,19.67,3.25c2.73-4.08-6.77-6.53-6.77-6.53s5.18-3.66,0.68-6.37
	c-4.49-2.72-5.56-1.68-5.56-1.68l-2.02,3.72l-3.22-2.42c0,0-3.41,1.77-8.91,2.05C-11.17,289.72-16.49,289.05-16.49,289.05z"/>
<path id="V22-279.76"d="M-18.72,272.54c0,0,1.2,4.56,1.47,8.34c0.28,3.79,0.13,6.42,0.13,6.42s14.72,2.16,22.4-1.76
	l-1.61-4.36c0,0,2.86,0.57,4.75,2.68c1.89,2.11,2.51,5.52,6.45,5.37s9.83,2.17,11.97,1.17c2.14-1.01,2.89-2.97,2.74-4.66
	s-2.87-4.81-6.87-5.02c-4-0.22-10.79-0.66-11.29-1.89c0,0,7.87-4.63,2.14-9.91s-7.68,1.19-10,2.51
	C1.24,272.74-18.72,272.54-18.72,272.54z"/>
<path id="V21-262.93" d="M-17.7,254.8c0,0,1.76,4.57,1.76,8.17s-0.88,7.69-0.88,7.69s14.9,1.84,21.15-2.56l-0.8-3.84
	c0,0,3.25-0.48,4.75,1.12c1.5,1.6,8.63,9.37,17.04,9.37s3.83-10.33,2.11-11.13c-1.71-0.8-14.13-1.92-14.13-1.92l0.16-1.68
	c0,0,7.77-3.28,1.52-7.61s-7.93,3.12-7.93,3.12l-3.12-1.68c0,0-4.97,1.92-10.01,1.92S-17.7,254.8-17.7,254.8z"/>
<path id="V20-245.20" d="M-17.7,237.4c0,0,1.51,3.02,1.35,7.45c-0.15,4.43-1.04,8.75-1.04,8.75L4,252.74
	c0,0-1.05-4.66,0.94-4.81s2.86,0.89,4.07,3.07s10.36,9.84,13.89,9.74c3.53-0.1,6.41-2.32,5.5-7.07c-0.91-4.75-5.5-6.02-8.78-6.82
	s-6.79-2.71-6.79-2.71s7.93-4.68,5.72-7.33s-7.6-5.06-9.34-2.44c-1.73,2.62-1.42,3.64-3.4,3.95S-17.7,237.4-17.7,237.4z"/>
<path id="V19-229.52" d="M-17.18,222.03c0,0,1.78,5.11,1.53,7.14c-0.25,2.03-2.27,6.67-2.27,6.67l22.95,1.36
	c0,0,1.31-1.91,0.53-4.75s3.03-0.3,3.18,0.44c0.16,0.74,8.86,8.92,12.66,9.83s5.12,0.28,5.88-3.4c0.76-3.68-2.42-6.08-5.34-7.31
	s-5.57-3.15-5.57-3.15s5.89-7.82-1.55-10.06c-7.32-2.2-8.04,2.87-8.39,3.34l-2.1-1.01C1.93,222.89-12.87,225.06-17.18,222.03z"/>
<path id="V18-213.23" d="M-16.36,206.47c-1.27-0.16,1.15,5.61,0.96,7.6c-0.19,1.99-2.19,4.69-1.59,5.82
	c0.6,1.13,17.78,1.75,21.19,0.84c0,0,1.71-2.18,1.22-4.13c0,0,2.29-1.12,2.73-0.55s7.19,12.31,14.97,10.5s0.5-9.17-3.03-10.13
	c-3.53-0.96-5.85-3.15-5.85-3.15s3.8-4.57,3.45-6.04c-0.35-1.47-1.46-2.54-1.46-2.54l-6.01,1.28l-1.81-5.15l-3.05,4.16
	C5.36,204.97-9.98,207.28-16.36,206.47z"/>
<path id="V17-196.78" d="M-16.49,191.06c-0.68,0.7,0.47,3.35,0.76,6.05c0.29,2.7-1.6,6-1.34,6.97
	c0.26,0.97,7.01-0.76,9.6-0.5c2.59,0.26,9.72,1.55,9.72,1.55s1.04-4.19,2.7-4.81s3.12,9.33,4.82,8.87s7.18,2.76,10.44,1.97
	c3.26-0.79,0.88-7.71-3.28-9.29s0.04-2.42,0.11-3.8c0.06-1.38-0.45-5.41-5.1-4.85c-4.66,0.56-2.59-6.95-4.07-7.6
	s-2.99,3.41-5.96,4.65S-16.49,191.06-16.49,191.06z"/>
<path id="V16-182.26" d="M-17.84,176.5c0,0,1.66,3.57,1.67,6.76c0.01,3.2-1.73,5.28-1.54,6.05
	c0.19,0.77,5.89-0.29,9.19-0.24c3.3,0.05,8.69,1.92,9.36,0.46c0.68-1.46,0.26-4.21,1.97-4.64s1.5,5.04,3.01,6.24
	s7.75,3.38,9.44,3.92c1.69,0.53,5.61,2.77,5.79-1.43c0.18-4.19-2.67-4.18-5.23-5.8c-2.56-1.62-2.75-3.04-2.75-3.04
	s5.36-0.03,3.89-4.94c-1.47-4.91-4.39-2.72-6.59-2.53c-2.2,0.2-3.83-0.44-4.49-1.75c-0.67-1.31,0.16-4.27-1.64-3.83
	s-2.03,3.35-3.23,3.74C-0.18,175.86-12.81,177.94-17.84,176.5z"/>
<path id="V15-168.33" d="M-16.58,162.39c-0.67-0.28,0.58,4.16,0.46,6.56c-0.12,2.4-1.95,5.33-1.51,5.94
	c0.44,0.61,7.16-0.39,9.25-0.13s7.56,0.49,8.5-0.01c0.94-0.49,1.74-5.04,3.52-5.07c1.78-0.03-0.8,6.67,0.34,7.43
	c1.14,0.75,4.8,0.76,7.88,4.09s5.29,6.97,7.48,4.75c2.19-2.22-4.16-7.92-5.31-9.77s-1.54-3.75-0.49-4.09s3.86-2.41,2.06-5.69
	s-4.43-1.67-6.42-1.86c-1.99-0.19-2.05-5.37-3.47-5.73s-2.21,3.16-3.97,3.87S-12.57,164.04-16.58,162.39z"/>
<path id="V14-154.17" d="M-16.45,148.61c0,0,1.71,9.46,0.41,12.1c0,0,8.87-0.71,11.6-0.27
	c2.73,0.43,6.18,1.41,6.18,1.41s0.2-6.75,2.84-6.38c2.64,0.37-0.62,6.71,0.63,7.61c1.25,0.91,3.86-0.13,4.48,1.23
	c0.62,1.36,5.85,11.64,8.06,11.8s4.19-0.26,3.31-3.73c-0.88-3.46-9.25-14.73-8.05-15.08c1.21-0.35,4.38,0.39,4.18-3.13
	c-0.21-3.52-2.75-4.66-4.4-4.35s-4.02,1.34-4.36,0.28c-0.34-1.07-0.33-5.95-1.8-5.41s-3.04,2.95-4.52,3.41
	S-16.45,148.61-16.45,148.61z"/>
<path id="V13-140.66" d="M-16.81,135.77c0,0,1.36,3.68,1.13,5.56s-1.79,4.31-1.54,4.91s8.17,0.19,10.47,0.35
	c2.3,0.17,7.09,0.8,7.09,0.8s1.29-5.52,2.2-5.52s2.18,0.83,2.25,1.56c0.07,0.73,0.4,5.14,0.58,5.38c0.18,0.24,4.86,2.75,5.42,4.56
	c0.56,1.81,3.04,10.51,4.43,10.74s4.17-0.57,4.52-3.36c0.34-2.79-4.24-8.76-4.86-10.9c-0.62-2.13-2.26-3.7-2.28-5.33
	c-0.01-1.63,4.39-3.66,2.56-5.89c-1.83-2.23-3.93,0.09-6.67-1.77c-2.74-1.86-1.26-6.65-2.71-6.4s-1.24,3.88-5.96,4.52
	S-14.87,136.79-16.81,135.77z"/>
<path id="V6-58.02" d="M-13.49,54.71c0,0,0.53,2.29,0.29,3.73c-0.24,1.43-1.05,3.54-1.05,3.54s5.49,1.67,11.03-0.94
	l1.38-2.77c0,0,6.84,4.36,9.71,5.32c2.86,0.96,4.87,0.53,7.98,1.72c3.11,1.19,4.63,1,5.11-0.19s-0.29-2.05-4.11-3.73
	c-3.82-1.67-6.74-4.44-9.84-6.11c-3.11-1.67-1.43,0.24-5.26-1.91s-5.06-0.14-5.02-0.72c0.05-0.57,0.1-1.02,0.1-1.02
	S-9.38,56.05-13.49,54.71z"/>
<path id="V7-67.98" d="M-12.75,63.08l-0.35,9.73c0,0,8.51,1.36,10.78,0.4s1.39-4.26,1.39-4.26l1.47-0.22
	c0,0,6.15,5.56,14.42,9.54s7.97,0.02,7.97,0.02s2.78-2.44-5.08-5.86c-7.85-3.42-10.05-7.02-10.05-7.02s2.46-5.1-1.94-6.81
	c-4.4-1.71-5.16,0.06-6.82,3.41l-1.87-0.69C-2.82,61.33-7.54,65.67-12.75,63.08z"/>
<path id="V8-80.14" d="M-13.87,74.48c0,0,0.76,3.03,0.47,5c-0.29,1.97-1.11,5-1.11,5s7.61,3.27,14.14,0.67
	c0,0-0.64-4.61,0.76-4.34c1.4,0.27-0.99,2.48,0.68,3.46s5.04,4.7,11.15,7.53s7.4,3.87,8.38-0.72c0.99-4.59-3.67-3.85-6.32-6.55
	c-2.66-2.7-6.02-6.18-6.02-6.18s5.44-2.54,1.2-6.38C5.17,68.1,1.8,72.61,1.8,72.61l-1.5-0.82C-0.89,73.54-5.67,76.92-13.87,74.48z"
	/>
<path id="V9-91.53" d="M-13.79,86.43c0,0,0.4,2.6,0.23,5.23c-0.17,2.64-1.43,4.48-1.43,4.48s10.61,2.6,15-0.26
	c0,0,0.22-3.85,1.14-3.56s-0.99,4.84,0.51,5.43c1.49,0.59,4.97-0.1,8.12,1.25c3.16,1.35,6.77,6.2,8.36,6.48
	c1.59,0.28,2.61,0.61,3.34-2.74c0.73-3.35,0.3-3.04-1.74-3.69s-3.51-2.35-6.45-5.09c-2.94-2.73-4.47-3.56-4.47-3.56
	s5.85-2.17,3.08-5.07s-5.94,0.35-7.33,0.46s-3.79-3.13-4.68-2.98s-1.57,3.14-2.05,3.52S-11.88,87.61-13.79,86.43z"/>
<path id="V10-103.54" d="M-14.64,97.47c0,0,0.63,3.64,0.11,5.98s-1.34,4.85-1.34,4.85s10.37,2.87,16.23,0.12l0.46-3.53
	l2.3,1.36c0,0-3.05,5.1-1.56,5.64c1.48,0.54,5.39-0.34,6.49,0.16s8.41,12.78,11.06,8.88c2.65-3.9-4.62-10.62-5.54-12.97
	s-2.27-2.2-2.27-2.2s5.13-4.59,1-6.91c-4.13-2.32-2.5,1.01-5.51,0.3c-3.01-0.7-4.23-3.85-4.72-3.72s-1.88,2.29-2.99,2.31
	C-2.05,97.75-10.17,99.49-14.64,97.47z"/>
<path id="V11-115.34" d="M-14.91,109.9c0,0,0.48,3.56,0.21,5.7s-1.18,4.77-1.18,4.77s5.82,1.38,9.59,1.08
	s6.56-1.1,6.56-1.1s0.13-4.18,2.88-3.24c2.75,0.94-1.12,4.91-0.22,5.91c0.9,1,5.56,0.27,6.34,2.09c0.78,1.82,7.97,18.12,8.93,11.61
	c0.96-6.51-0.26-4.99-2.55-11.46c-2.29-6.47-2.87-5.96-3.03-7.17s1.55-3.9,0.83-4.66c-0.72-0.76-10.71-4.86-10.71-4.86
	s-6.81,2.02-10.43,1.95S-14.91,109.9-14.91,109.9z"/>
<path id="V12-128.14" d="M-16.51,122.82c0,0,1.27,2.7,0.83,5.77c-0.46,3.14-1,4.98-1,4.98s4.51,1.14,9.13,1.13
	c4.62-0.01,8.11-0.25,8.11-0.25s0.79-5.65,2.43-5.3s1.33,3.34,1.33,3.34l-2.34,4.1c2.52,0.12,5.54-0.66,5.54-0.66
	s7.3,15.22,8.8,15.34s4.09-4.96,2.56-7.32c-1.54-2.36-6.94-12.88-6.51-13.86s4.38-5.3,1.55-7.03c-2.83-1.73-6.65,0.31-9.6-3.84
	c0,0-4.73,3.25-10.97,3.64C-12.89,123.24-16.51,122.82-16.51,122.82z"/>
<path id="V5-47.56" d="M-12.67,45.26c-0.43,0.51-0.04,3.02-0.05,4.2c-0.01,1.18-2.36,2.95-1.68,3.35
	c0.68,0.4,7.51-1.27,8.54-0.62s2.31-2.02,3.11-1.46c0.8,0.56,0.91,3.6,2,4.1c1.08,0.5,7.71-0.2,8.85,0.6s4.9,3.44,5.76,2.21
	s-2.14-4.76-3.71-5.87c-1.57-1.1-2.38-3.5-4.41-4.79c-2.03-1.29-2.44-0.25-4.35-0.96c-4.32-1.61-2.31-3.23-5.12-2.94
	C-6.7,43.38-12.67,45.26-12.67,45.26z"/>
<path id="V4-37.67" d="M-14.52,37.81l0.5,7.49c0,0,6.49-2.62,8.39-2.96c1.56-0.28,5.34,1.32,5.34,1.32
	s4.04-1.38,5.39-0.78c1.35,0.61,4.55-0.43,4.47-0.86c-0.07-0.43-1.46-2.25-3.9-3.35s-4.54-2.5-6.43-3.35
	c-1.89-0.85-4.96-3.36-9.03-0.98C-13.83,36.72-14.52,37.81-14.52,37.81z"/>
<path id="V1-9.06" d="M-15.15,6.51c0,0-2.19,9,0.49,10.7c0,0,4.56-5.11,7.91-4.5c3.35,0.61,6.81,2.13,6.81,2.13
	s3.65-2.49,5.9-2.49s6.99,0,6.99-2.31s-0.73-4.03-1.82-4.48c-1.09-0.45-3.71-1.13-5.9,0s-3.65,1.8-3.65,1.8s-4.39,0.24-6.27-1.03
	C-4.69,6.33-11.38,7.43-15.15,6.51z"/>
<path id="V2-19.05" d="M-14.62,27.72L-15,18.89c0,0,1.06-4.66,7.32-4.36s6.78,1.89,6.78,1.89l3.74-1.39
	c0,0,1.08,0.99,2.78,1.03s3.15,0.48,3.14,1.34s-0.23,2.36-4.03,4.03s-3.16-0.21-3.61,1.06c-0.45,1.27,0.02,2.37-0.77,2.36
	c-0.79-0.01-2.36-1.25-4.74-1.29C-6.77,23.5-14.62,27.72-14.62,27.72z"/>
<path id="V3-28.55" d="M-14.52,28.26l0.36,7.81c0,0,5.84-4.68,8.88-3.43c3.04,1.26,5.54,3.33,5.54,3.33
	s2.15-1.44,4.05-0.34s3.28,3.49,3.96,2.95c0.68-0.54,1.88-1.16-1.26-5.61s-3.69-3.63-3.69-3.63s-3.71-3.85-7.06-4.24
	C-7.08,24.72-14.52,28.26-14.52,28.26z"/>
<path id="V0-0" d="M-13.27,4.37c0,0-1.01-2.69-2.35-3.36s-1.18-3.53,1.18-5.37s4.03-2.01,5.71,0s5.54-3.19,8.06,0
	s-0.84,3.64-0.84,3.64S5.03-1,7.04-3.02s3.69,1.24,3.02,2.3C9.39,0.34,7.38,2.19,5.53,2.52s-8.66,0-8.66,0l-0.91,3.69
	c0,0-2.85,0.34-5.54,0S-13.27,4.37-13.27,4.37z"/>
<path id="V24-319.53" d="M9.68,300.45c0.33-1.7-0.96-5.52-3.16-5.86s-9.25-0.24-9.25-0.24s-3.8,5.86-5.1,6.53
	c-1.3,0.66-5.53,2.77-6.93,5.34s-5.16,14.76-4.37,20.47c0.79,5.71,9.46,8.54,12.52,8.35s11.33,5.2,13,6.68s3.16,5.86,3.54,9.08
	s-2.55,8.64-1.26,8.98s1.35-0.12,1.35-0.12s-2.22,2.46-2.73,4.77s0.09,4.96-1.46,6.82c-1.55,1.86-2.43,4.11-0.61,5.21
	c0,0-6.62,5.67-4.35,7.81s8.24-5.82,8.19-6.36c-0.05-0.54-0.25-1.79-0.25-1.79s1.7-0.16,3.12-3.45c1.42-3.29-0.3-4.22,0.47-6.73
	c0.76-2.51,4.51-7.01,4.09-7.7c-0.42-0.68-1.04-1.44-1.04-1.44l3.47-0.59l-0.54-12.79c0,0,2.55-2.77,2.15-7.16
	c-0.4-4.39-3.97-4.88-4.2-6.4c-0.23-1.52-0.72-7.89-0.72-7.89s-7.4-6.74-7.69-7.98c-0.29-1.24,2.31-2.38,0.68-4.4
	s-7.96-0.99-7.96-0.99s0.04-6.51,1.65-6.66S9.38,302.02,9.68,300.45z"/>
</svg>
